<svg width="1530" height="124" viewBox="0 0 1530 124" fill="none" xmlns="http://www.w3.org/2000/svg">
<rect x="8.5" width="1513" height="116" fill="#278CF0"/>
<rect y="92" width="8.5" height="8" fill="white"/>
<rect y="100" width="8.5" height="8" fill="#2F669E"/>
<rect x="17.0005" y="116" width="1504.5" height="4" fill="#2F669E"/>
<rect x="1521.5" y="92" width="8.5" height="8" fill="white"/>
<rect x="1521.5" y="100" width="8.5" height="8" fill="#2F669E"/>
<rect x="8.5" width="1513" height="100" fill="#278CF0"/>
<rect x="4.24951" y="112" width="4.25" height="4" fill="#070E14"/>
<rect x="8.5" y="116" width="4.25" height="4" fill="#070E14"/>
<rect width="4.25" height="112" fill="#070E14"/>
<rect width="4.25" height="112" transform="matrix(-1 0 0 1 1530 0)" fill="#070E14"/>
<rect x="12.75" y="120" width="1504.5" height="4" fill="#070E14"/>
<rect x="12.75" y="116" width="1065.69" height="4" fill="#2D66A1"/>
<rect x="8.5" y="112" width="4.25" height="4" fill="#278CF0"/>
<rect x="4.24951" width="4.25" height="112" fill="white"/>
<rect width="4.25" height="116" transform="matrix(-1 0 0 1 1525.75 0)" fill="white"/>
<rect x="4.24951" width="1521.5" height="4" fill="#2D66A1"/>
<rect width="4.25" height="4" transform="matrix(-1 0 0 1 1525.75 112)" fill="#070E14"/>
<rect width="4.25" height="4" transform="matrix(-1 0 0 1 1521.5 116)" fill="#070E14"/>
<rect x="1522.56" y="4" width="4" height="1514.06" transform="rotate(90 1522.56 4)" fill="white"/>
<rect x="1521.5" y="4" width="4.25" height="4" fill="#2D66A1"/>
<rect x="1521.5" width="4.25" height="4" fill="#070E14"/>
<rect x="4.24951" y="4" width="4.25" height="4" fill="#2D66A1"/>
<rect x="4.24951" width="4.25" height="4" fill="#070E14"/>
</svg>
