<svg width="1495" height="124" viewBox="0 0 1495 124" fill="none" xmlns="http://www.w3.org/2000/svg">
<rect x="8.30566" width="1478.39" height="116" fill="#278CF0"/>
<rect y="92" width="8.30556" height="8" fill="white"/>
<rect y="100" width="8.30556" height="8" fill="#2F669E"/>
<rect x="16.6118" y="116" width="1470.08" height="4" fill="#2F669E"/>
<rect x="1486.69" y="92" width="8.30556" height="8" fill="white"/>
<rect x="1486.69" y="100" width="8.30556" height="8" fill="#2F669E"/>
<rect x="8.30566" width="1478.39" height="100" fill="#278CF0"/>
<rect x="4.15234" y="112" width="4.15278" height="4" fill="#070E14"/>
<rect x="8.30566" y="116" width="4.15278" height="4" fill="#070E14"/>
<rect width="4.15278" height="112" fill="#070E14"/>
<rect width="4.15278" height="112" transform="matrix(-1 0 0 1 1495 0)" fill="#070E14"/>
<rect x="12.4585" y="120" width="1470.08" height="4" fill="#070E14"/>
<rect x="12.4585" y="116" width="1041.31" height="4" fill="#2D66A1"/>
<rect x="8.30566" y="112" width="4.15278" height="4" fill="#278CF0"/>
<rect x="4.15234" width="4.15278" height="112" fill="white"/>
<rect width="4.15278" height="116" transform="matrix(-1 0 0 1 1490.85 0)" fill="white"/>
<rect x="4.15234" width="1486.69" height="4" fill="#2D66A1"/>
<rect width="4.15278" height="4" transform="matrix(-1 0 0 1 1490.85 112)" fill="#070E14"/>
<rect width="4.15278" height="4" transform="matrix(-1 0 0 1 1486.69 116)" fill="#070E14"/>
<rect x="1487.73" y="4" width="4" height="1479.43" transform="rotate(90 1487.73 4)" fill="white"/>
<rect x="1486.69" y="4" width="4.15278" height="4" fill="#2D66A1"/>
<rect x="1486.69" width="4.15278" height="4" fill="#070E14"/>
<rect x="4.15234" y="4" width="4.15278" height="4" fill="#2D66A1"/>
<rect x="4.15234" width="4.15278" height="4" fill="#070E14"/>
</svg>
